<svg width="149" height="109" viewBox="0 0 149 109" fill="none" xmlns="http://www.w3.org/2000/svg">
<g clip-path="url(#clip0_72_886)">
<path d="M70.4365 90.134H78.479C81.9908 90.268 84.618 92.6808 84.0551 96.3535C83.7065 98.6322 81.9372 100.08 79.7926 100.589L84.5912 107.72H81.7228L77.1922 100.777H72.8761V107.72H70.4633V90.134H70.4365ZM78.5326 92.2787H72.8761V98.7126H78.4253C79.6853 98.7126 81.133 97.7743 81.5083 96.568C82.2053 94.3697 80.7309 92.5199 78.5326 92.3055V92.2787Z" fill="white"/>
<path d="M18.0268 107.72L25.3454 90.2412C25.3454 90.2412 25.4527 90.1608 25.5331 90.1608C26.2033 90.0804 27.0075 90.2144 27.6777 90.1608L35.0768 107.747H32.5568L30.8679 103.806H22.0748L20.4127 107.747H18L18.0268 107.72ZM30.0369 101.635L26.5518 93.0829L22.9595 101.635H30.0637H30.0369Z" fill="white"/>
<path d="M48.641 90.0268V107.72H46.4964V105.87C45.5313 107.157 44.0568 107.908 42.4751 108.015C37.5692 108.337 34.808 103.458 36.3897 99.088C37.7301 95.3616 42.3143 93.9944 45.5313 96.2195L46.3623 96.9433V90H48.6678L48.641 90.0268ZM42.3143 97.2382C36.6309 97.2918 37.1135 106.675 43.0113 105.817C47.8367 105.12 47.4882 97.1578 42.3143 97.2382Z" fill="white"/>
<path d="M144.802 97.1309V95.442H147V107.72H144.802V105.87C144.802 105.87 144.587 106.138 144.48 106.273C143.059 107.908 140.888 108.337 138.797 107.827C135.124 106.943 133.596 102.975 134.534 99.5437C135.794 94.9863 141.638 93.6191 144.775 97.1309H144.802ZM140.673 97.265C134.936 97.3186 135.446 106.701 141.37 105.844C146.115 105.147 145.847 97.2114 140.673 97.265Z" fill="white"/>
<path d="M123.571 102.198H113.598C113.92 106.165 119.148 107.345 121.266 104.047C121.694 104.45 122.257 104.798 122.686 105.2C122.767 105.281 122.874 105.361 122.847 105.468C122.794 105.683 121.909 106.514 121.694 106.701C118.558 109.195 113.464 108.042 111.829 104.342C109.872 99.8386 113.035 94.8791 118.022 95.1471C121.721 95.3616 124 98.6322 123.571 102.198ZM121.266 100.402C120.569 96.1122 114.537 96.2731 113.706 100.402H121.266Z" fill="white"/>
<path d="M53.5481 104.879C54.6472 106.004 56.9259 106.46 58.3736 105.817C59.2851 105.415 59.7944 104.342 59.1242 103.484C58.0519 102.064 53.9771 102.68 52.3418 100.804C51.3499 99.6777 51.4839 97.8816 52.3954 96.7557C54.4328 94.2625 59.7676 94.7182 61.3493 97.5867L59.6604 98.659C59.4727 98.7126 59.3119 98.3373 59.2046 98.2033C58.1859 97.1042 56.4434 96.7288 55.0494 97.2382C53.8162 97.6939 53.3873 99.2488 54.7009 99.919C56.4434 100.804 58.8829 100.455 60.545 101.796C62.2071 103.136 62.0463 105.522 60.545 106.809C58.1323 108.873 52.8243 108.203 51.2158 105.307L52.9852 104.208H53.0656C53.1996 104.423 53.3605 104.691 53.5481 104.852V104.879Z" fill="white"/>
<path d="M94.1084 95.442L97.8615 104.664L101.641 95.442H104.027L98.8803 107.72H96.8429L91.6152 95.442H94.1084Z" fill="white"/>
<path d="M128.637 95.442V97.1846C129.2 96.4071 129.897 95.8442 130.836 95.6029C130.997 95.5493 131.452 95.442 131.586 95.442H133.302V97.4794H131.479C129.817 97.4794 128.503 99.3828 128.637 100.938V107.72H126.278V95.442H128.637Z" fill="white"/>
<path d="M89.5236 95.442H87.1646V107.72H89.5236V95.442Z" fill="white"/>
<path d="M108.45 95.442H106.091V107.72H108.45V95.442Z" fill="white"/>
<path d="M88.1022 90.0268C89.4158 89.8123 90.4345 91.26 89.6035 92.3859C88.826 93.4314 87.0031 93.0293 86.8422 91.6621C86.735 90.8847 87.3516 90.1608 88.1022 90.0268Z" fill="white"/>
<path d="M107.056 90.0268C108.37 89.8123 109.389 91.26 108.558 92.3859C107.78 93.4314 105.957 93.0293 105.796 91.6621C105.689 90.8847 106.306 90.1608 107.056 90.0268Z" fill="white"/>
<path d="M36.264 87.4798H27.7884L29.6284 74.31C29.7443 71.4269 25.9919 71.0937 24.7024 73.1945C23.9925 74.3535 23.7752 77.4105 23.5579 78.8738C23.1377 81.7425 22.7755 84.6112 22.4133 87.4798H13.9377L15.6908 74.933C16.3137 71.0212 11.3443 70.8908 10.4605 74.1362L8.57703 87.4798H0L3.2019 64.9651H11.2573L11.098 66.8196C14.1405 63.4439 20.7906 63.5598 23.2826 67.544C26.441 64.0669 33.8445 62.9368 36.8436 67.0949C38.191 68.9494 38.3069 71.253 38.2055 73.4842L36.2495 87.4798H36.264Z" fill="white"/>
<path d="M146.997 87.4799H138.522L140.275 74.9331C140.912 71.0358 135.827 70.9054 134.871 74.0783L132.944 87.4799H124.367L127.569 64.9652H135.523L135.363 66.8197C137.493 64.5596 140.869 63.98 143.81 64.7769C147.867 65.878 149.286 69.6739 148.953 73.5857L146.997 87.4799Z" fill="white"/>
<path d="M52.5635 63.9509C61.097 63.3134 66.9358 69.7606 64.7626 78.2218C61.126 92.3912 37.9014 89.8268 41.2482 73.7159C42.3928 68.2539 47.029 64.3565 52.5635 63.9509ZM52.549 71.3978C48.2025 71.9918 47.5216 79.4243 51.926 80.0183C58.4602 80.9021 59.257 70.485 52.549 71.3978Z" fill="white"/>
<path d="M110.096 63.9509C118.63 63.3134 124.469 69.7606 122.295 78.2218C118.659 92.3912 95.4341 89.8268 98.7809 73.7159C99.9255 68.2539 104.562 64.3565 110.096 63.9509ZM110.096 71.3978C105.75 71.9918 105.069 79.4243 109.473 80.0183C116.007 80.9021 116.804 70.485 110.096 71.3978Z" fill="white"/>
<path d="M96.8972 64.965L93.6374 87.4797H85.2197L88.581 64.965H96.8972Z" fill="white"/>
<path d="M11.9819 42.3345H49.4484C51.2305 42.3345 52.6793 43.7834 52.6793 45.5654C52.6793 47.3475 51.2305 48.7963 49.4484 48.7963H11.9819C11.6631 48.7963 11.4023 48.5355 11.4023 48.2168V42.9141C11.4023 42.5953 11.6631 42.3345 11.9819 42.3345Z" fill="white" stroke="white" stroke-miterlimit="10"/>
<path d="M22.9492 28.0055H60.4157C62.1978 28.0055 63.6466 29.4543 63.6466 31.2364C63.6466 33.0184 62.1978 34.4672 60.4157 34.4672H22.9492C22.6304 34.4672 22.3696 34.2065 22.3696 33.8877V28.585C22.3696 28.2663 22.6304 28.0055 22.9492 28.0055Z" fill="white" stroke="white" stroke-miterlimit="10"/>
<path d="M37.1332 12.7929H74.5998C76.3818 12.7929 77.8306 14.2417 77.8306 16.0237C77.8306 17.8058 76.3818 19.2546 74.5998 19.2546H37.1332C36.8145 19.2546 36.5537 18.9938 36.5537 18.6751V13.3724C36.5537 13.0536 36.8145 12.7929 37.1332 12.7929Z" fill="white" stroke="white" stroke-miterlimit="10"/>
<path d="M136.74 61.5893H83.6113V18.2985L109.024 18.5737C111.371 18.6027 113.558 19.7473 114.906 21.6308L122.614 33.685C122.816 34.0037 123.135 34.2355 123.497 34.3659L123.715 34.4528L133.089 38.7124C135.276 39.6106 136.754 41.7694 136.754 44.1889V61.5748L136.74 61.5893ZM87.9723 57.2283H132.393V44.1889C132.393 43.5514 131.988 42.9719 131.365 42.7111L122.005 38.4661C120.745 38.0169 119.658 37.1621 118.934 36.0465L111.284 24.0648C110.806 23.3983 109.922 22.9492 108.98 22.9347L87.9723 22.7029V57.2283Z" fill="white"/>
<path d="M67.326 58.3151L67.7824 58.1847L68.2388 58.0543L72.31 56.8953H7.24432V6.72254C7.24432 5.59245 8.15708 4.6797 9.28716 4.6797H80.83C81.9601 4.6797 82.8729 5.59245 82.8729 6.72254V56.9097V57.1705V57.6342V61.5894H87.5236V6.72254C87.5236 3.01355 84.51 0 80.801 0H9.25818C5.54919 0 2.53564 3.01355 2.53564 6.72254V61.575H66.8624L67.1812 59.2568L67.3116 58.3151H67.326Z" fill="white"/>
<path d="M71.2964 61.9372L70.8907 64.9073C70.8907 64.9073 70.8328 64.9362 70.7458 64.9362C70.7169 64.9362 70.6734 64.9362 70.6444 64.9362C70.5865 64.9362 70.543 64.9362 70.4706 64.9362H70.4416C70.3112 64.9362 70.1518 64.9362 69.978 64.9362C69.9635 64.9362 69.949 64.9362 69.92 64.9362C69.7172 64.9362 69.5143 64.9362 69.297 64.9217C69.1666 64.9217 69.0217 64.9217 68.8913 64.9217C68.8189 64.9217 68.7609 64.9217 68.6885 64.9217C68.5726 64.9217 68.4712 64.9217 68.3698 64.9217C68.2828 64.9217 68.2104 64.9217 68.138 64.9217C68.109 64.9217 68.0655 64.9217 68.0365 64.9217C67.9351 64.9217 67.8482 64.9217 67.8047 64.9362C67.6888 64.9652 67.5874 64.9652 67.5584 65.1101L66.6167 72.0644H69.8186C69.4129 75.3388 68.645 78.6131 68.6885 81.9309C68.732 82.2931 68.7899 82.6408 68.8624 82.9596C68.8914 83.061 68.9203 83.1479 68.9348 83.2494C68.9928 83.4667 69.0652 83.684 69.1521 83.8868C69.1956 83.9738 69.2246 84.0607 69.268 84.1476C69.3695 84.3649 69.4854 84.5678 69.6013 84.7561C69.6302 84.7996 69.6592 84.8431 69.6882 84.8865C69.8476 85.1038 70.0214 85.3212 70.1953 85.5095C70.2388 85.553 70.2967 85.5964 70.3547 85.6544C70.4995 85.7848 70.6444 85.9152 70.8038 86.0311C70.8762 86.0746 70.9342 86.1325 71.0066 86.176C71.166 86.2919 71.3398 86.3788 71.5137 86.4802C71.5717 86.5092 71.6296 86.5527 71.6876 86.5816C71.9194 86.6975 72.1657 86.799 72.4265 86.8859C72.4699 86.9004 72.5279 86.9149 72.5714 86.9294C72.7887 87.0018 73.006 87.0598 73.2378 87.1177C73.3247 87.1322 73.4117 87.1612 73.4986 87.1757C73.7014 87.2191 73.9043 87.2626 74.1071 87.2916C74.194 87.2916 74.2665 87.3205 74.3534 87.335C74.9329 87.422 75.527 87.4654 76.121 87.4944C76.2224 87.4944 76.3093 87.4944 76.4107 87.4944C76.6281 87.4944 76.8454 87.4944 77.0627 87.5089C77.1641 87.5089 77.2511 87.5089 77.3525 87.5089C77.4829 87.5089 77.6133 87.5089 77.7436 87.5089C78.2652 87.5089 78.8013 87.5089 79.3084 87.4944C79.8155 87.4944 80.3226 87.4799 80.8007 87.4799C80.8586 87.4799 80.9166 87.4799 80.96 87.4799C81.0035 87.4799 81.0325 87.4799 81.0759 87.4799L82.0032 80.2503H78.9607C78.9607 80.2503 78.3522 80.0619 78.2652 80.0185C78.1348 79.9605 78.0334 79.8881 77.9465 79.8156C77.6712 79.5838 77.5263 79.2796 77.4539 78.9319C77.4104 78.7725 77.3959 78.6131 77.367 78.4393L78.1928 72.0934H83.2492L84.2778 64.9652H79.2215L79.6416 61.9951L79.6996 61.6329H71.2964L71.2529 61.9951L71.2964 61.9372Z" fill="white"/>
<path d="M80.4096 56.9677L78.7725 57.4313L71.6443 59.4597L71.3545 61.5895H79.7432L80.3372 57.4313L80.4096 56.9677Z" fill="white"/>
</g>
<defs>
<clipPath id="clip0_72_886">
<rect width="149" height="108.03" fill="white"/>
</clipPath>
</defs>
</svg>
